# xmcd
#
# Track frame offsets:
#	150
#	14272
#	27582
#	41335
#	50350
#	65432
#	80577
#	91572
#	104090
#	120560
#	136885
#
# Disc length: 2022 seconds
#
# Revision: 1
# Processed by: cddbd v1.4PL0 Copyright (c) Steve Scherf et al.
# Submitted via: Gronk 1.4
#
DISCID=8807e40b
DTITLE=Davin James - Making My Mark
DYEAR=1995
DGENRE=country
TTITLE0=Guadalupe Days
TTITLE1=Poor Folks
TTITLE2=When I Get Off
TTITLE3=Back In The Swing
TTITLE4=The City Beat Me Back Home
TTITLE5=If You Had A Mind Too
TTITLE6=Life's Too Short
TTITLE7=Siesta Sunday
TTITLE8=You're The Kind Of Woman
TTITLE9=Making My Mark
TTITLE10=Hard To Keep My Head Above Water
EXTD=
EXTT0=
EXTT1=
EXTT2=
EXTT3=
EXTT4=
EXTT5=
EXTT6=
EXTT7=
EXTT8=
EXTT9=
EXTT10=
PLAYORDER=
